# xmcd CD database file
#
# Track frame offsets:
#	150
#	21574
#	42095
#	60093
#	84559
#	107222
#	131462
#	153069
#
# Disc length: 2358 seconds
#
# Revision: 0
# Processed by: cddbd v1.5.2PL0 Copyright (c) Steve Scherf et al.
# Submitted via: CDex 1.70beta2
#
DISCID=58093408
DTITLE=Mosi Conde - Kaira Kora Afrika
DYEAR=2010
DGENRE=Merengue
TTITLE0=Kaira Kora Afrika
TTITLE1=Ite Sey Ala Telena
TTITLE2=Landeye
TTITLE3=Ejante E Dendo
TTITLE4=Canitaya
TTITLE5=Um'Farma Ne Tina
TTITLE6=Toh Ne Mu Fa
TTITLE7=Tooba
EXTD=YEAR: 2010
EXTT0=
EXTT1=
EXTT2=
EXTT3=
EXTT4=
EXTT5=
EXTT6=
EXTT7=
PLAYORDER=
